<svg id="图层_1" data-name="图层 1" xmlns="http://www.w3.org/2000/svg" viewBox="0 0 217.66 58.81"><defs><style>.cls-1{fill:#3d3a39;}.cls-2{fill:#005fe8;}</style></defs><title>极限搜索平台-01</title><polygon class="cls-1" points="100.84 4.86 98.04 4.86 98.04 7.49 93.8 7.49 93.8 10.29 98.04 10.29 98.04 14.2 93.46 14.2 93.46 39.06 96.26 39.06 96.26 17.01 98.04 17.01 98.04 39.06 100.84 39.06 100.84 17.01 103.07 17.01 103.07 14.2 100.84 14.2 100.84 10.29 103.07 10.29 103.07 7.49 100.84 7.49 100.84 4.86"/><polygon class="cls-1" points="118.71 22.34 118.71 16.88 113.22 16.88 117 7.86 117 4.58 105.05 4.58 105.05 7.38 114.16 7.38 109.01 19.68 115.91 19.68 115.91 21.7 113.62 26.4 111.39 22.23 108.92 23.55 112.11 29.5 107.74 38.45 110.26 39.68 113.74 32.55 117.58 39.72 120.04 38.4 115.25 29.44 118.71 22.34"/><rect class="cls-1" x="91.53" y="23.11" width="29.26" height="2.8" transform="translate(70.62 127.51) rotate(-83.96)"/><path class="cls-1" d="M135.7,4.66h-9.41V39.14h2.8V34.88l6.68-2.28-2.12-9.48Zm-3.21,26.1-3.4,1.16V7.46h3.48l-1.76,15.82Z" transform="translate(0 0)"/><path class="cls-1" d="M151.74,27.9l-2-2-3.73,3.65-5.71-6.16V22.07h11.18V4.66H140.34v0h-2.8V40L145.19,38l-.72-2.71-4.13,1.11V27.51l11.23,12.1,2.05-1.9L148,31.61Zm-11.4-8.63v-4.5h8.38v4.5Zm8.38-11.81V12h-8.38V7.46Z" transform="translate(0 0)"/><polygon class="cls-1" points="160.51 38.9 163.31 38.9 163.31 7.26 181.8 7.26 181.8 34.84 178.82 37.69 180.76 39.72 184.6 36.04 184.6 4.46 160.51 4.46 160.51 38.9"/><polygon class="cls-1" points="168.84 10.81 167.85 15.6 166.86 10.81 164.12 11.38 166.42 22.52 164.12 33.67 166.86 34.24 167.85 29.45 168.84 34.24 171.58 33.67 169.28 22.52 171.58 11.38 168.84 10.81"/><polygon class="cls-1" points="180.56 33.67 178.26 22.52 180.56 11.38 177.81 10.81 176.83 15.6 175.84 10.81 173.09 11.38 175.4 22.52 173.09 33.67 175.84 34.24 176.83 29.45 177.81 34.24 180.56 33.67"/><rect class="cls-1" x="198.04" y="3.95" width="2.8" height="6.03" transform="translate(53.49 143.07) rotate(-45)"/><polygon class="cls-1" points="217.66 13.07 217.66 10.27 208.39 10.27 212.95 6.07 211.05 4 204.25 10.27 192.77 10.27 192.77 13.07 203.7 13.07 203.7 22.44 192.77 22.44 192.77 25.24 203.7 25.24 203.7 27.84 193.29 38.9 195.33 40.82 206.5 28.95 206.5 25.24 217.66 25.24 217.66 22.44 206.5 22.44 206.5 13.07 217.66 13.07"/><rect class="cls-1" x="209.65" y="28.56" width="2.8" height="13.38" transform="translate(39.88 163.64) rotate(-46.35)"/><polygon class="cls-1" points="52.05 32.98 27.12 0 12.26 0.02 10.37 9.06 25.25 9.05 50 42.51 64.74 42.43 66.72 32.97 52.59 32.97 52.05 32.98"/><polygon class="cls-1" points="58.97 0.03 53.26 27.34 68.05 27.34 73.75 0.03 58.97 0.03"/><polygon class="cls-2" points="48.59 49.25 23.7 15.79 8.75 15.88 6.77 25.33 21.65 25.33 21.65 25.33 46.73 58.3 61.59 58.28 63.48 49.24 48.59 49.25"/><polygon class="cls-2" points="0 58.81 14.78 58.81 20.48 31.57 5.7 31.57 0 58.81"/><rect class="cls-1" x="94.7" y="46.77" width="1.84" height="9.19"/><polygon class="cls-1" points="105.77 53.08 101.59 46.75 99.75 46.75 99.75 55.96 101.59 55.96 101.59 49.65 105.77 55.96 107.61 55.96 107.61 46.75 105.77 46.75 105.77 53.08"/><polygon class="cls-1" points="110.82 55.96 112.66 55.96 112.66 52.07 115.6 52.07 115.6 50.61 112.66 50.61 112.66 48.26 116.5 48.26 116.5 46.77 110.82 46.77 110.82 55.96"/><rect class="cls-1" x="119.19" y="46.77" width="1.84" height="9.19"/><polygon class="cls-1" points="130.25 53.08 126.08 46.75 124.23 46.75 124.23 55.96 126.08 55.96 126.08 49.65 130.25 55.96 132.09 55.96 132.09 46.75 130.25 46.75 130.25 53.08"/><rect class="cls-1" x="135.3" y="46.77" width="1.84" height="9.19"/><path class="cls-1" d="M148.63,52.26h3.17a2.5,2.5,0,0,1-2.61,2.12,2.77,2.77,0,0,1-2.87-3,2.74,2.74,0,0,1,2.79-3,2.32,2.32,0,0,1,2.16,1.18h2.12a4.23,4.23,0,0,0-4.28-2.88,4.7,4.7,0,0,0,0,9.39,4.49,4.49,0,0,0,4.49-3.58V50.85h-5Z" transform="translate(0 0)"/><path class="cls-1" d="M159.11,46.75,155.8,56h1.94l.61-1.75H162l.6,1.75h1.95l-3.3-9.21Zm-.26,6,1.33-3.84,1.33,3.84Z" transform="translate(0 0)"/><polygon class="cls-1" points="166.7 48.26 169.15 48.26 169.15 55.96 171 55.96 171 48.26 173.44 48.26 173.44 46.77 166.7 46.77 166.7 48.26"/><polygon class="cls-1" points="176.18 55.96 181.51 55.96 181.51 54.46 178.02 54.46 178.02 52.02 181.11 52.02 181.11 50.56 178.02 50.56 178.02 48.26 181.51 48.26 181.51 46.75 176.18 46.75 176.18 55.96"/><polygon class="cls-1" points="193.23 53.87 191.47 46.77 189.41 46.77 187.54 53.9 185.93 46.77 183.95 46.77 186.43 55.97 188.59 55.96 190.39 49.41 192.12 55.96 194.29 55.96 196.86 46.77 194.87 46.77 193.23 53.87"/><path class="cls-1" d="M202.18,46.75,198.88,56h1.93l.61-1.75h3.66l.61,1.75h1.95l-3.31-9.21Zm-.26,6,1.33-3.84,1.33,3.84Z" transform="translate(0 0)"/><polygon class="cls-1" points="215.52 46.77 213.56 50.97 211.58 46.77 209.5 46.77 212.62 52.76 212.62 55.96 214.46 55.96 214.46 52.76 217.57 46.77 215.52 46.77"/></svg>