<?xml version="1.0" encoding="utf-8"?>
<!-- Generator: Adobe Illustrator 25.0.1, SVG Export Plug-In . SVG Version: 6.00 Build 0)  -->
<svg version="1.1" id="图层_1" xmlns="http://www.w3.org/2000/svg" xmlns:xlink="http://www.w3.org/1999/xlink" x="0px" y="0px"
	 viewBox="0 0 230.7 67.4" style="enable-background:new 0 0 230.7 67.4;" xml:space="preserve">
<style type="text/css">
	.st0{fill:#3D3A39;}
	.st1{fill:#005FE8;}
</style>
<g>
	<g>
		<path class="st0" d="M92.4,8.3h4.4v22.2h-4.4V8.3z"/>
		<path class="st0" d="M119.4,8.3v22.2h-4.5l-10.1-15.2v15.2h-4.4V8.3h4.4l10.1,15.3V8.3H119.4z"/>
		<path class="st0" d="M123,8.3h13.7v3.6h-9.2v5.7h7.1v3.5h-7.1v9.4H123V8.3z"/>
		<path class="st0" d="M139,8.3h4.4v22.2H139V8.3z"/>
		<path class="st0" d="M166,8.3v22.2h-4.5l-10.1-15.2v15.2h-4.4V8.3h4.4l10.1,15.3V8.3H166z"/>
		<path class="st0" d="M169.6,8.3h4.4v22.2h-4.4V8.3z"/>
		<path class="st0" d="M112.9,43.6h-5.1c-1-1.9-2.9-2.9-5.2-2.9c-4,0-6.7,2.8-6.7,7.2c0,4.5,2.8,7.3,6.9,7.3c3.4,0,5.6-2,6.3-5.1
			h-7.6v-3.4h12v3.9c-0.9,4.5-4.9,8.6-10.8,8.6c-6.5,0-11.3-4.7-11.3-11.3c0-6.6,4.9-11.3,11.3-11.3
			C107.6,36.6,111.5,39.1,112.9,43.6z"/>
		<path class="st0" d="M122.9,41.2c2.8,0,4.8,1.3,5.8,2.8v-2.5h4.5v17.6h-4.5v-2.6c-1,1.5-3.1,2.9-5.8,2.9c-4.5,0-8-3.7-8-9.2
			S118.4,41.2,122.9,41.2z M124,45.1c-2.4,0-4.6,1.8-4.6,5.1s2.3,5.2,4.6,5.2c2.4,0,4.7-1.8,4.7-5.2C128.7,46.9,126.5,45.1,124,45.1
			z"/>
		<path class="st0" d="M137.4,45.1h-2.1v-3.7h2.1v-4.4h4.5v4.4h3.9v3.7h-3.9v8.5c0,1.2,0.5,1.7,1.9,1.7h2.1v3.7H143
			c-3.4,0-5.6-1.4-5.6-5.5V45.1z"/>
		<path class="st0" d="M155.9,59.3c-5.1,0-8.8-3.6-8.8-9.1c0-5.6,3.6-9.1,8.8-9.1c5.1,0,8.7,3.5,8.7,8.7c0,0.6,0,1.1-0.1,1.7h-12.9
			c0.2,2.6,2,4.1,4.2,4.1c1.9,0,3-1,3.5-2.1h4.8C163.2,56.8,160.3,59.3,155.9,59.3z M151.7,48.6h8.4c-0.1-2.3-1.9-3.8-4.2-3.8
			C153.7,44.8,152,46.2,151.7,48.6z"/>
		<path class="st0" d="M165.1,41.5h4.5l3.1,13.4l3.4-13.4h4.7l3.3,13.4l3.1-13.4h4.3l-5.1,17.6h-4.8l-3.2-12.3l-3.2,12.3h-4.8
			L165.1,41.5z"/>
		<path class="st0" d="M200,41.2c2.8,0,4.8,1.3,5.8,2.8v-2.5h4.5v17.6h-4.5v-2.6c-1,1.5-3.1,2.9-5.8,2.9c-4.5,0-8-3.7-8-9.2
			S195.5,41.2,200,41.2z M201.1,45.1c-2.4,0-4.6,1.8-4.6,5.1s2.3,5.2,4.6,5.2c2.4,0,4.7-1.8,4.7-5.2
			C205.8,46.9,203.6,45.1,201.1,45.1z"/>
		<path class="st0" d="M226,41.5h4.7l-10.9,25.9h-4.7l3.8-8.8l-7.1-17.2h5l4.5,12.3L226,41.5z"/>
	</g>
	<g>
		<g>
			<polygon class="st1" points="47.8,53.4 23.3,20.5 8.6,20.6 6.7,29.9 21.3,29.9 21.3,29.9 45.9,62.3 60.6,62.3 62.4,53.4 			"/>
			<polygon class="st0" points="24.8,13.9 49.2,46.8 63.6,46.7 65.6,37.4 51.7,37.4 51.2,37.4 26.7,5 12.1,5 10.2,13.9 			"/>
			<polygon class="st0" points="58,5 52.4,31.9 66.9,31.9 72.5,5 			"/>
			<polygon class="st1" points="14.5,62.8 20.1,36 5.6,36 0,62.8 			"/>
		</g>
	</g>
</g>
</svg>
